<?xml version="1.0" standalone="no"?>
<!DOCTYPE svg PUBLIC "-//W3C//DTD SVG 20010904//EN"
 "http://www.w3.org/TR/2001/REC-SVG-20010904/DTD/svg10.dtd">
<svg version="1.0" xmlns="http://www.w3.org/2000/svg"
 width="100.000000pt" height="100.000000pt" viewBox="0 0 100.000000 100.000000"
 preserveAspectRatio="xMidYMid meet">

<g transform="translate(0.000000,100.000000) scale(0.100000,-0.100000)"
fill="#000000" stroke="none">
<path d="M435 908 c-173 -23 -319 -171 -343 -346 -39 -280 190 -508 471 -470
84 11 161 51 228 117 96 96 136 217 117 353 -21 157 -151 304 -299 337 -71 16
-110 18 -174 9z m139 -63 c133 -22 252 -147 274 -289 37 -238 -166 -441 -404
-404 -339 53 -406 511 -97 667 44 22 133 40 168 35 11 -1 38 -6 59 -9z"/>
<path d="M424 759 c-101 -30 -185 -134 -188 -232 -1 -49 0 -52 24 -52 19 0 26
6 28 25 8 59 25 103 54 136 39 44 60 55 128 69 48 10 55 14 55 36 0 20 -5 24
-35 26 -19 1 -49 -3 -66 -8z"/>
</g>
</svg>
